# xmcd CD database file
# Copyright (C) 1993-1998 Ti Kan
#
# Track frame offsets:
#	150
#	10470
#	22948
#	34615
#	48895
#	64278
#	75608
#	86868
#	95403
#	105605
#
# Disc length: 1542 seconds
#
# Revision: 1
# Processed by: cddbd v1.4b41PL1 Copyright (c) Steve Scherf et al.
# Submitted via: CDValet v3.01 - Copyright (c) 1997 Greg Leichner
#
DISCID=7306040a
DTITLE=Various Artist - #1 Country Hits
DYEAR=1900
DGENRE=
TTITLE0=Blue Suede Shoes/Carl Perkins
TTITLE1=I Walk The Line/Johnny Cash
TTITLE2=Walking After Midnight/Patsy Cline
TTITLE3=You've Never Been This Way Before/Conway Twitty
TTITLE4=The wanderer/Eddie Rabbit
TTITLE5=Hello Darlin/Conway Twitty
TTITLE6=Let Me Be The One/Hank Locklin
TTITLE7=Great Balls Of Fire/Jerry Lee Lewis
TTITLE8=Guess Things Happen That Way/Johnny Cash
TTITLE9=Walk On By/LeRoy Van Dyke
EXTD=
EXTT0=
EXTT1=
EXTT2=
EXTT3=
EXTT4=
EXTT5=
EXTT6=
EXTT7=
EXTT8=
EXTT9=
PLAYORDER=
